<?xml version="1.0" standalone="no"?>
<!DOCTYPE svg PUBLIC "-//W3C//DTD SVG 20010904//EN"
 "http://www.w3.org/TR/2001/REC-SVG-20010904/DTD/svg10.dtd">
<svg version="1.0" xmlns="http://www.w3.org/2000/svg"
 width="512.000000pt" height="512.000000pt" viewBox="0 0 512.000000 512.000000"
 preserveAspectRatio="xMidYMid meet">

<g transform="translate(0.000000,512.000000) scale(0.100000,-0.100000)"
fill="#000000" stroke="none">
<path d="M383 5105 c-165 -45 -292 -171 -335 -334 -16 -61 -17 -205 -17 -1997
-1 -1274 2 -1950 9 -1985 29 -153 147 -296 289 -349 43 -17 46 -20 58 -75 40
-174 191 -323 362 -355 35 -6 735 -10 1990 -10 1708 0 1944 2 1996 15 166 44
294 171 337 334 16 61 17 187 17 1669 l1 1603 -25 24 c-13 14 -31 25 -40 25
-12 0 -15 16 -15 99 l0 99 30 11 c18 6 34 21 40 36 13 34 13 347 0 416 -31
164 -162 311 -321 362 -11 4 -19 22 -23 51 -11 69 -71 181 -131 241 -60 60
-154 110 -234 125 -35 6 -734 10 -1995 9 -1637 0 -1949 -3 -1993 -14z m4029
-168 c33 -16 76 -49 102 -78 82 -91 76 39 76 -1615 l0 -1473 -512 -3 -513 -3
-55 -31 c-30 -17 -70 -50 -87 -73 -62 -80 -63 -94 -63 -623 l0 -478 -1076 0
-1076 0 -29 -29 c-34 -34 -37 -69 -10 -102 l19 -24 1114 0 1113 0 60 28 c63
29 96 61 883 842 l312 310 0 -566 c0 -341 -4 -588 -10 -620 -14 -75 -53 -150
-105 -204 l-45 -45 -1868 2 -1867 3 -67 33 c-43 21 -80 48 -103 76 -32 40 -65
103 -65 126 0 6 63 10 181 10 l181 0 29 30 c35 34 32 71 -8 107 -24 22 -30 23
-253 23 -203 0 -236 2 -280 19 -66 25 -112 61 -150 116 -64 93 -61 -33 -58
2096 3 1836 4 1936 21 1974 44 98 103 153 200 186 50 18 146 18 2002 16 l1950
-2 57 -28z m68 -3321 c0 -2 -216 -216 -480 -476 l-480 -472 0 435 0 435 26 31
c14 17 40 35 57 40 30 8 877 16 877 7z"/>
<path d="M710 4118 c-25 -27 -26 -69 -1 -99 l19 -24 1644 -3 c1160 -1 1651 1
1669 9 25 10 49 46 49 73 0 7 -9 25 -21 40 l-20 26 -1659 0 -1659 0 -21 -22z"/>
<path d="M730 3397 c-30 -15 -45 -54 -36 -91 15 -59 -74 -56 1698 -56 1278 0
1628 3 1648 13 13 7 31 24 39 38 19 33 1 81 -35 98 -38 17 -3280 15 -3314 -2z"/>
<path d="M715 2645 c-32 -31 -33 -74 -2 -103 l23 -22 1656 0 1657 0 20 26 c28
35 26 69 -4 99 l-24 25 -1651 0 -1651 0 -24 -25z"/>
<path d="M716 1909 c-34 -27 -35 -71 -1 -104 l24 -25 839 0 c830 0 838 0 860
20 30 28 30 82 0 110 -22 20 -30 20 -859 20 -831 0 -836 0 -863 -21z"/>
</g>
</svg>
